<svg xmlns="http://www.w3.org/2000/svg" xmlns:xlink="http://www.w3.org/1999/xlink" width="40" height="40" viewBox="0 0 40 40"><defs><path id="_1214458511__a" d="M0 0h40v40H0z"/></defs><g fill="none" fill-rule="evenodd"><mask id="_1214458511__b" fill="#fff"><use xlink:href="#_1214458511__a"/></mask><use fill="#FFF" xlink:href="#_1214458511__a"/><path fill="#FFF" fill-rule="nonzero" d="M27.617 40V24.531h5.215l.781-6.054h-5.996V14.62c0-1.749.486-2.94 2.994-2.94h3.178V6.279c-.553-.074-2.45-.238-4.658-.238-4.61 0-7.764 2.813-7.764 7.98v4.456h-5.195v6.054h5.195V40h6.25z" mask="url(#_1214458511__b)"/><path fill="#4267B2" fill-rule="nonzero" d="M0 0v40h21.367V24.531h-5.195v-6.054h5.195V14.02c0-5.167 3.155-7.98 7.764-7.98 2.208 0 4.105.164 4.658.238v5.4h-3.178c-2.508 0-2.994 1.192-2.994 2.941v3.857h5.996l-.781 6.054h-5.215V40H40V0H0z" mask="url(#_1214458511__b)"/></g></svg>