<svg xmlns="http://www.w3.org/2000/svg" xmlns:xlink="http://www.w3.org/1999/xlink" width="40" height="40" viewBox="0 0 40 40"><defs><path id="_3123214267__a" d="M0 0h40v40H0z"/><path id="_3123214267__b" d="M29.172 12.479c1.016-.688 1.797-1.776 2.165-3.073a9.208 9.208 0 0 1-3.127 1.348C27.312 9.674 26.032 9 24.616 9c-2.719 0-4.924 2.487-4.924 5.554 0 .435.044.859.128 1.266-4.092-.232-7.72-2.443-10.15-5.803a6.078 6.078 0 0 0-.666 2.792c0 1.927.87 3.627 2.19 4.622a4.49 4.49 0 0 1-2.23-.694v.07c0 2.69 1.697 4.935 3.95 5.446a4.41 4.41 0 0 1-2.224.095c.627 2.206 2.445 3.812 4.6 3.857-1.685 1.49-3.808 2.377-6.115 2.377A8.87 8.87 0 0 1 8 28.504C10.18 30.08 12.767 31 15.548 31c9.057 0 14.01-8.463 14.01-15.802 0-.24-.006-.48-.015-.719A10.809 10.809 0 0 0 32 11.604a8.992 8.992 0 0 1-2.828.875z"/></defs><g fill="none" fill-rule="evenodd"><use fill="#1DA1F2" xlink:href="#_3123214267__a"/><use fill="#FFF" fill-rule="nonzero" xlink:href="#_3123214267__b"/></g></svg>