<svg xmlns="http://www.w3.org/2000/svg" width="40" height="40" viewBox="0 0 40 40"><g fill="none" fill-rule="evenodd"><path fill="#FFF" d="M0 0h40v40H0z"/><path fill="#D9252A" d="M30.856 14.654a2.894 2.894 0 0 0-2.012-2.072c-1.775-.49-8.892-.49-8.892-.49s-7.118 0-8.893.49a2.894 2.894 0 0 0-2.012 2.072c-.476 1.827-.476 5.64-.476 5.64s0 3.812.476 5.64c.262 1.008 1.033 1.802 2.012 2.071 1.775.49 8.893.49 8.893.49s7.117 0 8.892-.49c.98-.269 1.75-1.063 2.012-2.071.476-1.828.476-5.64.476-5.64s0-3.813-.476-5.64"/><path fill="#FFF" d="M17.676 23.808l5.913-3.514-5.913-3.515v7.029"/></g></svg>